[INFO] Render 20260509_062826_ac44c44c started
$ "D:\Project AI\vela_ai_studio_v5\ffmpeg-2026-05-06-git-f2e5eff3ff-full_build\bin\ffmpeg.exe" -y -loop 1 -framerate 24 -t 3.000 -i "D:\Project AI\vela_ai_studio_v5\outputs\preview_smoke\preview_source.png" -vf scale=960:540:force_original_aspect_ratio=increase,crop=960:540,zoompan=z='min(zoom+0.0014,1.18)':x='(iw-iw/zoom)/2+sin(on/8)*5':y='(ih-ih/zoom)/2':d=72:s=960x540:fps=24,setsar=1,format=yuv420p,eq=brightness='if(lt(t,0.10),0.22,if(gt(t,2.900),0.18,0))' -an -c:v libx264 -preset veryfast -crf 28 -pix_fmt yuv420p "D:\Project AI\vela_ai_studio_v5\outputs\preview_smoke\renders\Preview_Smoke_V661_Preview_Scene_1\20260509_062826_ac44c44c\cache\16x9\scene_01.mp4"
ffmpeg version 2026-05-06-git-f2e5eff3ff-full_build-www.gyan.dev Copyright (c) 2000-2026 the FFmpeg developers
  built with gcc 15.2.0 (Rev13, Built by MSYS2 project)
  configuration: --enable-gpl --enable-version3 --enable-static --disable-w32threads --disable-autodetect --enable-cairo --enable-fontconfig --enable-iconv --enable-gnutls --enable-lcms2 --enable-libxml2 --enable-gmp --enable-bzlib --enable-lzma --enable-libsnappy --enable-zlib --enable-librist --enable-libsrt --enable-libssh --enable-libzmq --enable-avisynth --enable-libbluray --enable-libcaca --enable-libdvdnav --enable-libdvdread --enable-sdl2 --enable-libaribb24 --enable-libaribcaption --enable-libdav1d --enable-libdavs2 --enable-libopenjpeg --enable-libquirc --enable-libuavs3d --enable-libxevd --enable-libzvbi --enable-liboapv --enable-libqrencode --enable-librav1e --enable-libsvtav1 --enable-libvvenc --enable-libwebp --enable-libx264 --enable-libx265 --enable-libxavs2 --enable-libxeve --enable-libxvid --enable-libaom --enable-libjxl --enable-libsvtjpegxs --enable-libvpx --enable-mediafoundation --enable-libass --enable-frei0r --enable-libfreetype --enable-libfribidi --enable-libharfbuzz --enable-liblensfun --enable-libvidstab --enable-libvmaf --enable-libzimg --enable-amf --enable-cuda-llvm --enable-cuvid --enable-dxva2 --enable-d3d11va --enable-d3d12va --enable-ffnvcodec --enable-libvpl --enable-nvdec --enable-nvenc --enable-vaapi --enable-libshaderc --enable-vulkan --enable-libplacebo --enable-opencl --enable-libcdio --enable-openal --enable-libgme --enable-libmodplug --enable-libopenmpt --enable-libopencore-amrwb --enable-libmp3lame --enable-libshine --enable-libtheora --enable-libtwolame --enable-libvo-amrwbenc --enable-libcodec2 --enable-libilbc --enable-libgsm --enable-liblc3 --enable-libopencore-amrnb --enable-libopus --enable-libspeex --enable-libvorbis --enable-ladspa --enable-libbs2b --enable-libflite --enable-libmysofa --enable-librubberband --enable-libsoxr --enable-chromaprint --enable-whisper
  libavutil      60. 30.100 / 60. 30.100
  libavcodec     62. 30.100 / 62. 30.100
  libavformat    62. 15.100 / 62. 15.100
  libavdevice    62.  4.100 / 62.  4.100
  libavfilter    11. 17.100 / 11. 17.100
  libswscale      9.  7.100 /  9.  7.100
  libswresample   6.  4.100 /  6.  4.100
Input #0, png_pipe, from 'D:\Project AI\vela_ai_studio_v5\outputs\preview_smoke\preview_source.png':
  Duration: N/A, bitrate: N/A
  Stream #0:0: Video: png, rgb24(pc, gbr/unknown/unknown), 512x512, 24 fps, 24 tbr, 24 tbn
Stream mapping:
  Stream #0:0 -> #0:0 (png (native) -> h264 (libx264))
Press [q] to stop, [?] for help
[libx264 @ 000001eac63cdf80] using SAR=1/1
[libx264 @ 000001eac63cdf80] using cpu capabilities: MMX2 SSE2Fast SSSE3 SSE4.2 AVX FMA3 BMI2 AVX2
[libx264 @ 000001eac63cdf80] profile High, level 3.1, 4:2:0, 8-bit
[libx264 @ 000001eac63cdf80] 264 - core 165 r3223 0480cb0 - H.264/MPEG-4 AVC codec - Copyleft 2003-2025 - http://www.videolan.org/x264.html - options: cabac=1 ref=1 deblock=1:0:0 analyse=0x3:0x113 me=hex subme=2 psy=1 psy_rd=1.00:0.00 mixed_ref=0 me_range=16 chroma_me=1 trellis=0 8x8dct=1 cqm=0 deadzone=21,11 fast_pskip=1 chroma_qp_offset=0 threads=17 lookahead_threads=4 sliced_threads=0 nr=0 decimate=1 interlaced=0 bluray_compat=0 constrained_intra=0 bframes=3 b_pyramid=2 b_adapt=1 b_bias=0 direct=1 weightb=1 open_gop=0 weightp=1 keyint=250 keyint_min=24 scenecut=40 intra_refresh=0 rc_lookahead=10 rc=crf mbtree=1 crf=28.0 qcomp=0.60 qpmin=0 qpmax=69 qpstep=4 ip_ratio=1.40 aq=1:1.00
Output #0, mp4, to 'D:\Project AI\vela_ai_studio_v5\outputs\preview_smoke\renders\Preview_Smoke_V661_Preview_Scene_1\20260509_062826_ac44c44c\cache\16x9\scene_01.mp4':
  Metadata:
    encoder         : Lavf62.15.100
  Stream #0:0: Video: h264 (avc1 / 0x31637661), yuv420p(tv, progressive), 960x540 [SAR 1:1 DAR 16:9], q=2-31, 24 fps, 12288 tbn
    Metadata:
      encoder         : Lavc62.30.100 libx264
    Side data:
      CPB properties: bitrate max/min/avg: 0/0/0 buffer size: 0 vbv_delay: N/A
frame=  534 fps=0.0 q=33.0 size=       0KiB time=00:00:22.12 bitrate=   0.0kbits/s speed=  43x elapsed=0:00:00.51    
frame= 1112 fps=1088 q=33.0 size=       0KiB time=00:00:46.25 bitrate=   0.0kbits/s speed=45.3x elapsed=0:00:01.02    
frame= 1713 fps=1106 q=30.0 size=       0KiB time=00:01:11.29 bitrate=   0.0kbits/s speed=  46x elapsed=0:00:01.54    
frame= 2301 fps=1120 q=33.0 size=     256KiB time=00:01:35.79 bitrate=  21.9kbits/s speed=46.6x elapsed=0:00:02.05    
frame= 2906 fps=1132 q=33.0 size=     256KiB time=00:02:01.00 bitrate=  17.3kbits/s speed=47.1x elapsed=0:00:02.56    
frame= 3513 fps=1137 q=30.0 size=     256KiB time=00:02:26.29 bitrate=  14.3kbits/s speed=47.4x elapsed=0:00:03.08    
frame= 4104 fps=1140 q=33.0 size=     512KiB time=00:02:50.91 bitrate=  24.5kbits/s speed=47.5x elapsed=0:00:03.60    
frame= 4714 fps=1143 q=33.0 size=     512KiB time=00:03:16.29 bitrate=  21.4kbits/s speed=47.6x elapsed=0:00:04.12    
[out#0/mp4 @ 000001eac63cc840] video:672KiB audio:0KiB subtitle:0KiB other streams:0KiB global headers:0KiB muxing overhead: 9.118117%
frame= 5184 fps=1147 q=-1.0 Lsize=     734KiB time=00:03:35.91 bitrate=  27.8kbits/s speed=47.8x elapsed=0:00:04.52    
[libx264 @ 000001eac63cdf80] frame I:72    Avg QP:14.52  size:  2205
[libx264 @ 000001eac63cdf80] frame P:1313  Avg QP:23.61  size:   190
[libx264 @ 000001eac63cdf80] frame B:3799  Avg QP:30.66  size:    74
[libx264 @ 000001eac63cdf80] consecutive B-frames:  1.6%  0.9%  3.5% 94.0%
[libx264 @ 000001eac63cdf80] mb I  I16..4: 96.7%  0.2%  3.1%
[libx264 @ 000001eac63cdf80] mb P  I16..4:  3.7%  0.0%  0.0%  P16..4:  3.1%  0.3%  0.1%  0.0%  0.0%    skip:92.8%
[libx264 @ 000001eac63cdf80] mb B  I16..4:  0.8%  0.0%  0.0%  B16..8:  1.4%  0.1%  0.0%  direct: 0.1%  skip:97.6%  L0:47.8% L1:47.9% BI: 4.3%
[libx264 @ 000001eac63cdf80] 8x8 transform intra:0.3% inter:27.9%
[libx264 @ 000001eac63cdf80] coded y,uvDC,uvAC intra: 1.4% 0.4% 0.3% inter: 0.1% 0.1% 0.0%
[libx264 @ 000001eac63cdf80] i16 v,h,dc,p: 97%  2%  1%  0%
[libx264 @ 000001eac63cdf80] i8 v,h,dc,ddl,ddr,vr,hd,vl,hu: 49%  3% 44%  2%  1%  0%  0%  0%  1%
[libx264 @ 000001eac63cdf80] i4 v,h,dc,ddl,ddr,vr,hd,vl,hu: 38% 14% 23%  3%  5%  4%  5%  3%  6%
[libx264 @ 000001eac63cdf80] i8c dc,h,v,p: 89%  0% 11%  0%
[libx264 @ 000001eac63cdf80] Weighted P-Frames: Y:0.0% UV:0.0%
[libx264 @ 000001eac63cdf80] kb/s:25.48
$ "D:\Project AI\vela_ai_studio_v5\ffmpeg-2026-05-06-git-f2e5eff3ff-full_build\bin\ffmpeg.exe" -y -f concat -safe 0 -i "D:\Project AI\vela_ai_studio_v5\outputs\preview_smoke\renders\Preview_Smoke_V661_Preview_Scene_1\20260509_062826_ac44c44c\temp\concat_16x9.txt" -c copy "D:\Project AI\vela_ai_studio_v5\outputs\preview_smoke\renders\Preview_Smoke_V661_Preview_Scene_1\20260509_062826_ac44c44c\temp\joined_16x9.mp4"
ffmpeg version 2026-05-06-git-f2e5eff3ff-full_build-www.gyan.dev Copyright (c) 2000-2026 the FFmpeg developers
  built with gcc 15.2.0 (Rev13, Built by MSYS2 project)
  configuration: --enable-gpl --enable-version3 --enable-static --disable-w32threads --disable-autodetect --enable-cairo --enable-fontconfig --enable-iconv --enable-gnutls --enable-lcms2 --enable-libxml2 --enable-gmp --enable-bzlib --enable-lzma --enable-libsnappy --enable-zlib --enable-librist --enable-libsrt --enable-libssh --enable-libzmq --enable-avisynth --enable-libbluray --enable-libcaca --enable-libdvdnav --enable-libdvdread --enable-sdl2 --enable-libaribb24 --enable-libaribcaption --enable-libdav1d --enable-libdavs2 --enable-libopenjpeg --enable-libquirc --enable-libuavs3d --enable-libxevd --enable-libzvbi --enable-liboapv --enable-libqrencode --enable-librav1e --enable-libsvtav1 --enable-libvvenc --enable-libwebp --enable-libx264 --enable-libx265 --enable-libxavs2 --enable-libxeve --enable-libxvid --enable-libaom --enable-libjxl --enable-libsvtjpegxs --enable-libvpx --enable-mediafoundation --enable-libass --enable-frei0r --enable-libfreetype --enable-libfribidi --enable-libharfbuzz --enable-liblensfun --enable-libvidstab --enable-libvmaf --enable-libzimg --enable-amf --enable-cuda-llvm --enable-cuvid --enable-dxva2 --enable-d3d11va --enable-d3d12va --enable-ffnvcodec --enable-libvpl --enable-nvdec --enable-nvenc --enable-vaapi --enable-libshaderc --enable-vulkan --enable-libplacebo --enable-opencl --enable-libcdio --enable-openal --enable-libgme --enable-libmodplug --enable-libopenmpt --enable-libopencore-amrwb --enable-libmp3lame --enable-libshine --enable-libtheora --enable-libtwolame --enable-libvo-amrwbenc --enable-libcodec2 --enable-libilbc --enable-libgsm --enable-liblc3 --enable-libopencore-amrnb --enable-libopus --enable-libspeex --enable-libvorbis --enable-ladspa --enable-libbs2b --enable-libflite --enable-libmysofa --enable-librubberband --enable-libsoxr --enable-chromaprint --enable-whisper
  libavutil      60. 30.100 / 60. 30.100
  libavcodec     62. 30.100 / 62. 30.100
  libavformat    62. 15.100 / 62. 15.100
  libavdevice    62.  4.100 / 62.  4.100
  libavfilter    11. 17.100 / 11. 17.100
  libswscale      9.  7.100 /  9.  7.100
  libswresample   6.  4.100 /  6.  4.100
[mov,mp4,m4a,3gp,3g2,mj2 @ 000001c179172d80] Auto-inserting h264_mp4toannexb bitstream filter
Input #0, concat, from 'D:\Project AI\vela_ai_studio_v5\outputs\preview_smoke\renders\Preview_Smoke_V661_Preview_Scene_1\20260509_062826_ac44c44c\temp\concat_16x9.txt':
  Duration: N/A, start: 0.000000, bitrate: 25 kb/s
  Stream #0:0(und): Video: h264 (High) (avc1 / 0x31637661), yuv420p(progressive), 960x540 [SAR 1:1 DAR 16:9], 25 kb/s, 24 fps, 24 tbr, 12288 tbn
    Metadata:
      handler_name    : VideoHandler
      encoder         : Lavc62.30.100 libx264
Stream mapping:
  Stream #0:0 -> #0:0 (copy)
Output #0, mp4, to 'D:\Project AI\vela_ai_studio_v5\outputs\preview_smoke\renders\Preview_Smoke_V661_Preview_Scene_1\20260509_062826_ac44c44c\temp\joined_16x9.mp4':
  Metadata:
    encoder         : Lavf62.15.100
  Stream #0:0(und): Video: h264 (High) (avc1 / 0x31637661), yuv420p(progressive), 960x540 [SAR 1:1 DAR 16:9], q=2-31, 25 kb/s, 24 fps, 24 tbr, 12288 tbn
    Metadata:
      handler_name    : VideoHandler
      encoder         : Lavc62.30.100 libx264
Press [q] to stop, [?] for help
[out#0/mp4 @ 000001c1790f1480] video:675KiB audio:0KiB subtitle:0KiB other streams:0KiB global headers:0KiB muxing overhead: 9.093237%
frame= 5184 fps=0.0 q=-1.0 Lsize=     736KiB time=00:03:35.91 bitrate=  27.9kbits/s speed=8.1e+03x elapsed=0:00:00.02
$ "D:\Project AI\vela_ai_studio_v5\ffmpeg-2026-05-06-git-f2e5eff3ff-full_build\bin\ffmpeg.exe" -y -i "D:\Project AI\vela_ai_studio_v5\outputs\preview_smoke\renders\Preview_Smoke_V661_Preview_Scene_1\20260509_062826_ac44c44c\temp\joined_16x9.mp4" -vf "ass='D\:/Project AI/vela_ai_studio_v5/outputs/preview_smoke/renders/Preview_Smoke_V661_Preview_Scene_1/20260509_062826_ac44c44c/subtitle.ass'" -an -c:v libx264 -preset veryfast -crf 28 -pix_fmt yuv420p "D:\Project AI\vela_ai_studio_v5\outputs\preview_smoke\renders\Preview_Smoke_V661_Preview_Scene_1\20260509_062826_ac44c44c\final_16x9.mp4"
bxml2 --enable-gmp --enable-bzlib --enable-lzma --enable-libsnappy --enable-zlib --enable-librist --enable-libsrt --enable-libssh --enable-libzmq --enable-avisynth --enable-libbluray --enable-libcaca --enable-libdvdnav --enable-libdvdread --enable-sdl2 --enable-libaribb24 --enable-libaribcaption --enable-libdav1d --enable-libdavs2 --enable-libopenjpeg --enable-libquirc --enable-libuavs3d --enable-libxevd --enable-libzvbi --enable-liboapv --enable-libqrencode --enable-librav1e --enable-libsvtav1 --enable-libvvenc --enable-libwebp --enable-libx264 --enable-libx265 --enable-libxavs2 --enable-libxeve --enable-libxvid --enable-libaom --enable-libjxl --enable-libsvtjpegxs --enable-libvpx --enable-mediafoundation --enable-libass --enable-frei0r --enable-libfreetype --enable-libfribidi --enable-libharfbuzz --enable-liblensfun --enable-libvidstab --enable-libvmaf --enable-libzimg --enable-amf --enable-cuda-llvm --enable-cuvid --enable-dxva2 --enable-d3d11va --enable-d3d12va --enable-ffnvcodec --enable-libvpl --enable-nvdec --enable-nvenc --enable-vaapi --enable-libshaderc --enable-vulkan --enable-libplacebo --enable-opencl --enable-libcdio --enable-openal --enable-libgme --enable-libmodplug --enable-libopenmpt --enable-libopencore-amrwb --enable-libmp3lame --enable-libshine --enable-libtheora --enable-libtwolame --enable-libvo-amrwbenc --enable-libcodec2 --enable-libilbc --enable-libgsm --enable-liblc3 --enable-libopencore-amrnb --enable-libopus --enable-libspeex --enable-libvorbis --enable-ladspa --enable-libbs2b --enable-libflite --enable-libmysofa --enable-librubberband --enable-libsoxr --enable-chromaprint --enable-whisper
  libavutil      60. 30.100 / 60. 30.100
  libavcodec     62. 30.100 / 62. 30.100
  libavformat    62. 15.100 / 62. 15.100
  libavdevice    62.  4.100 / 62.  4.100
  libavfilter    11. 17.100 / 11. 17.100
  libswscale      9.  7.100 /  9.  7.100
  libswresample   6.  4.100 /  6.  4.100
Input #0, mov,mp4,m4a,3gp,3g2,mj2, from 'D:\Project AI\vela_ai_studio_v5\outputs\preview_smoke\renders\Preview_Smoke_V661_Preview_Scene_1\20260509_062826_ac44c44c\temp\joined_16x9.mp4':
  Metadata:
    major_brand     : isom
    minor_version   : 512
    compatible_brands: isomiso2avc1mp41
    encoder         : Lavf62.15.100
  Duration: 00:03:36.00, start: 0.000000, bitrate: 27 kb/s
  Stream #0:0[0x1](und): Video: h264 (High) (avc1 / 0x31637661), yuv420p(progressive), 960x540 [SAR 1:1 DAR 16:9], 25 kb/s, 24 fps, 24 tbr, 12288 tbn (default)
    Metadata:
      handler_name    : VideoHandler
      encoder         : Lavc62.30.100 libx264
[Parsed_ass_0 @ 000001cb8f421400] libass API version: 0x1704000
[Parsed_ass_0 @ 000001cb8f421400] libass source: commit: 0.17.4-27-g1cbba0a8818c83495114b3c2b5730410eecbdb2c
[Parsed_ass_0 @ 000001cb8f421400] Shaper: FriBidi 1.0.16 (SIMPLE) HarfBuzz-ng 14.2.0 (COMPLEX)
[Parsed_ass_0 @ 000001cb8f421400] Using font provider directwrite (with GDI)
[Parsed_ass_0 @ 000001cb8f421400] Added subtitle file: 'D:/Project AI/vela_ai_studio_v5/outputs/preview_smoke/renders/Preview_Smoke_V661_Preview_Scene_1/20260509_062826_ac44c44c/subtitle.ass' (2 styles, 1 events)
Stream mapping:
  Stream #0:0 -> #0:0 (h264 (native) -> h264 (libx264))
Press [q] to stop, [?] for help
[Parsed_ass_0 @ 000001cb8f420d80] libass API version: 0x1704000
[Parsed_ass_0 @ 000001cb8f420d80] libass source: commit: 0.17.4-27-g1cbba0a8818c83495114b3c2b5730410eecbdb2c
[Parsed_ass_0 @ 000001cb8f420d80] Shaper: FriBidi 1.0.16 (SIMPLE) HarfBuzz-ng 14.2.0 (COMPLEX)
[Parsed_ass_0 @ 000001cb8f420d80] Using font provider directwrite (with GDI)
[Parsed_ass_0 @ 000001cb8f420d80] Added subtitle file: 'D:/Project AI/vela_ai_studio_v5/outputs/preview_smoke/renders/Preview_Smoke_V661_Preview_Scene_1/20260509_062826_ac44c44c/subtitle.ass' (2 styles, 1 events)
[Parsed_ass_0 @ 000001cb8f420d80] Neither PlayResX nor PlayResY defined. Assuming 384x288
[Parsed_ass_0 @ 000001cb8f420d80] fontselect: (Arial, 400, 0) -> ArialMT, 0, ArialMT
[libx264 @ 000001cb913c9bc0] using SAR=1/1
[libx264 @ 000001cb913c9bc0] using cpu capabilities: MMX2 SSE2Fast SSSE3 SSE4.2 AVX FMA3 BMI2 AVX2
[libx264 @ 000001cb913c9bc0] profile High, level 3.1, 4:2:0, 8-bit
[libx264 @ 000001cb913c9bc0] 264 - core 165 r3223 0480cb0 - H.264/MPEG-4 AVC codec - Copyleft 2003-2025 - http://www.videolan.org/x264.html - options: cabac=1 ref=1 deblock=1:0:0 analyse=0x3:0x113 me=hex subme=2 psy=1 psy_rd=1.00:0.00 mixed_ref=0 me_range=16 chroma_me=1 trellis=0 8x8dct=1 cqm=0 deadzone=21,11 fast_pskip=1 chroma_qp_offset=0 threads=17 lookahead_threads=4 sliced_threads=0 nr=0 decimate=1 interlaced=0 bluray_compat=0 constrained_intra=0 bframes=3 b_pyramid=2 b_adapt=1 b_bias=0 direct=1 weightb=1 open_gop=0 weightp=1 keyint=250 keyint_min=24 scenecut=40 intra_refresh=0 rc_lookahead=10 rc=crf mbtree=1 crf=28.0 qcomp=0.60 qpmin=0 qpmax=69 qpstep=4 ip_ratio=1.40 aq=1:1.00
Output #0, mp4, to 'D:\Project AI\vela_ai_studio_v5\outputs\preview_smoke\renders\Preview_Smoke_V661_Preview_Scene_1\20260509_062826_ac44c44c\final_16x9.mp4':
  Metadata:
    major_brand     : isom
    minor_version   : 512
    compatible_brands: isomiso2avc1mp41
    encoder         : Lavf62.15.100
  Stream #0:0(und): Video: h264 (avc1 / 0x31637661), yuv420p(tv, progressive), 960x540 [SAR 1:1 DAR 16:9], q=2-31, 24 fps, 12288 tbn (default)
    Metadata:
      encoder         : Lavc62.30.100 libx264
      handler_name    : VideoHandler
    Side data:
      CPB properties: bitrate max/min/avg: 0/0/0 buffer size: 0 vbv_delay: N/A
frame=  484 fps=0.0 q=33.0 size=       0KiB time=00:00:20.08 bitrate=   0.0kbits/s speed=38.6x elapsed=0:00:00.52    
frame= 1054 fps=1024 q=33.0 size=       0KiB time=00:00:43.83 bitrate=   0.0kbits/s speed=42.6x elapsed=0:00:01.02    
frame= 1605 fps=1042 q=33.0 size=       0KiB time=00:01:06.79 bitrate=   0.0kbits/s speed=43.4x elapsed=0:00:01.53    
frame= 2198 fps=1064 q=33.0 size=     256KiB time=00:01:31.50 bitrate=  22.9kbits/s speed=44.3x elapsed=0:00:02.06    
frame= 2763 fps=1073 q=33.0 size=     256KiB time=00:01:55.04 bitrate=  18.2kbits/s speed=44.7x elapsed=0:00:02.57    
frame= 3339 fps=1078 q=33.0 size=     256KiB time=00:02:19.04 bitrate=  15.1kbits/s speed=44.9x elapsed=0:00:03.09    
frame= 3900 fps=1081 q=33.0 size=     256KiB time=00:02:42.41 bitrate=  12.9kbits/s speed=  45x elapsed=0:00:03.60    
frame= 4444 fps=1079 q=33.0 size=     512KiB time=00:03:05.08 bitrate=  22.7kbits/s speed=44.9x elapsed=0:00:04.11    
frame= 5022 fps=1082 q=33.0 size=     512KiB time=00:03:29.16 bitrate=  20.1kbits/s speed=45.1x elapsed=0:00:04.64    
[out#0/mp4 @ 000001cb8f4211c0] video:658KiB audio:0KiB subtitle:0KiB other streams:0KiB global headers:0KiB muxing overhead: 9.299984%
frame= 5184 fps=1087 q=-1.0 Lsize=     720KiB time=00:03:35.91 bitrate=  27.3kbits/s speed=45.3x elapsed=0:00:04.76    
[libx264 @ 000001cb913c9bc0] frame I:72    Avg QP:13.76  size:  2191
[libx264 @ 000001cb913c9bc0] frame P:1370  Avg QP:23.69  size:   182
[libx264 @ 000001cb913c9bc0] frame B:3742  Avg QP:30.04  size:    71
[libx264 @ 000001cb913c9bc0] consecutive B-frames:  2.2%  3.5%  3.3% 91.0%
[libx264 @ 000001cb913c9bc0] mb I  I16..4: 96.6%  0.3%  3.1%
[libx264 @ 000001cb913c9bc0] mb P  I16..4:  3.4%  0.0%  0.0%  P16..4:  3.0%  0.3%  0.1%  0.0%  0.0%    skip:93.1%
[libx264 @ 000001cb913c9bc0] mb B  I16..4:  0.7%  0.0%  0.0%  B16..8:  1.3%  0.1%  0.0%  direct: 0.0%  skip:97.8%  L0:48.4% L1:47.3% BI: 4.3%
[libx264 @ 000001cb913c9bc0] 8x8 transform intra:0.6% inter:27.5%
[libx264 @ 000001cb913c9bc0] coded y,uvDC,uvAC intra: 1.5% 0.4% 0.3% inter: 0.1% 0.0% 0.0%
[libx264 @ 000001cb913c9bc0] i16 v,h,dc,p: 97%  2%  1%  0%
[libx264 @ 000001cb913c9bc0] i8 v,h,dc,ddl,ddr,vr,hd,vl,hu: 55%  1% 42%  1%  0%  0%  0%  0%  0%
[libx264 @ 000001cb913c9bc0] i4 v,h,dc,ddl,ddr,vr,hd,vl,hu: 39% 13% 22%  3%  5%  4%  5%  3%  6%
[libx264 @ 000001cb913c9bc0] i8c dc,h,v,p: 89%  0% 11%  0%
[libx264 @ 000001cb913c9bc0] Weighted P-Frames: Y:0.2% UV:0.2%
[libx264 @ 000001cb913c9bc0] kb/s:24.95
